# AST/ASF file generated using VICON BodyLanguage
# -----------------------------------------------
:version 1.10
:name VICON
:units
  mass 1.0
  length 0.45
  angle deg
:documentation
   .ast/.asf automatically generated from VICON data using
   VICON BodyBuilder and BodyLanguage model FoxedUp or BRILLIANT.MOD
:root
   order TX TY TZ RX RY RZ
   axis XYZ
   position 0 0 0  
   orientation 0 0 0 
:bonedata
  begin
     id 1 
     name lhipjoint
     direction 0.702568 -0.596508 0.388042 
     length 2.56661 
     axis 0 0 0  XYZ
  end
  begin
     id 2 
     name lfemur
     direction 0.34202 -0.939693 0  
     length 6.58374  
     axis 0 0 20  XYZ
    dof rx ry rz
    limits (-160.0 20.0)
           (-70.0 70.0)
           (-60.0 70.0)
  end
  begin
     id 3 
     name ltibia
     direction 0.34202 -0.939693 0   
     length 6.62538   
     axis 0 0 20   XYZ
    dof rx
    limits (-10.0 170.0)
  end
  begin
     id 4 
     name lfoot
     direction 0.10455 -0.287249 0.952133   
     length 2.26699   
     axis -90 7.62852e-016 20   XYZ
    dof rx rz
    limits (-45.0 90.0)
           (-70.0 20.0)
  end
  begin
     id 5 
     name ltoes
     direction 1.53572e-011 -4.22322e-011 1   
     length 1.12949   
     axis -90 7.62852e-016 20   XYZ
    dof rx
    limits (-90.0 20.0)
  end
  begin
     id 6 
     name rhipjoint
     direction -0.728055 -0.574632 0.373811   
     length 2.66432  
     axis 0 0 0  XYZ 
  end
  begin
     id 7 
     name rfemur
     direction -0.34202 -0.939693 0   
     length 6.66732   
     axis 0 0 -20   XYZ
    dof rx ry rz
    limits (-160.0 20.0)
           (-70.0 70.0)
           (-70.0 60.0)
  end
  begin
     id 8 
     name rtibia
     direction -0.34202 -0.939693 0   
     length 6.59288   
     axis 0 0 -20   XYZ
    dof rx
    limits (-10.0 170.0)
 end
 begin
     id 9 
     name rfoot
     direction -0.119193 -0.327479 0.93731   
     length 2.38061  
     axis -90 -7.62852e-016 -20   XYZ
    dof rx rz
    limits (-45.0 90.0)
           (-20.0 70.0)
  end
  begin
     id 10 
     name rtoes
     direction -1.53547e-011 -4.21827e-011 1   
     length 1.17899   
     axis -90 -7.62852e-016 -20   XYZ
    dof rx
    limits (-90.0 20.0)
  end
  begin
     id 11 
     name lowerback
     direction -0.000416114 0.999912 -0.0132284   
     length 2.12109   
     axis 0 0 0   XYZ
    dof rx ry rz
    limits (-20.0 45.0)
           (-30.0 30.0)
           (-30.0 30.0)
  end
  begin
     id 12 
     name upperback
     direction -0.00136371 0.99809 0.0617608   
     length 2.10067   
     axis 0 0 0   XYZ
    dof rx ry rz
    limits (-20.0 45.0)
           (-30.0 30.0)
           (-30.0 30.0)
  end
  begin
     id 13 
     name thorax
     direction -3.43026e-005 0.997776 0.0666515   
     length 2.10618   
     axis 0 0 0   XYZ
    dof rx ry rz
    limits (-20.0 45.0)
           (-30.0 30.0)
           (-30.0 30.0)
  end
  begin
     id 14 
     name lowerneck
     direction 0.0398646 0.998418 0.0396592   
     length 1.83817   
     axis 0 0 0   XYZ
    dof rx ry rz
    limits (-20.0 45.0)
           (-30.0 30.0)
           (-30.0 30.0)
  end
  begin
     id 15 
     name upperneck
     direction -0.0367268 0.961527 -0.272244   
     length 1.81975   
     axis 0 0 0   XYZ
    dof rx ry rz
    limits (-20.0 45.0)
           (-30.0 30.0)
           (-30.0 30.0)
  end
  begin
     id 16
     name head
     direction -0.0182665 0.99536 -0.0944669  
     length 1.86026  
     axis 0 0 0   XYZ
    dof rx ry rz
    limits (-20.0 45.0)
           (-30.0 30.0)
           (-30.0 30.0)
  end
  begin
     id 17 
     name lclavicle
     direction 0.924239 0.361045 0.124212  
     length 3.26878  
     axis 0 0 0   XYZ
    dof ry rz
    limits (-20.0 10.0)
           (0.0 20.0)
  end
  begin
     id 18 
     name lhumerus
     direction 1 -4.48968e-011 -2.56583e-027   
     length 4.58538   
     axis 180 -30 -90   XYZ
    dof rx ry rz
    limits (-60.0 90.0)
           (-90.0 90.0)
           (-90.0 90.0)
  end
  begin
     id 19
     name lradius
     direction 1 -4.4898e-011 -5.50375e-027   
     length 2.68935   
     axis 180 -30 -90   XYZ
    dof rx
    limits (-10.0 170.0)
  end
  begin
     id 20
     name lwrist
     direction 1 -4.48939e-011 -1.48955e-026   
     length 1.34468   
     axis 9.0955e-015 90 90   XYZ
    dof ry
    limits (-180.0 0.0)
 end
  begin
     id 21 
     name lhand
     direction 1 -4.48936e-011 -2.97907e-026   
     length 0.585058   
     axis 1.90115e-014 90 90   XYZ
    dof rx rz
    limits (-90.0 90.0)
           (-45.0 45.0)
  end
  begin
     id 22 
     name lfingers
     direction 1 -4.49082e-011 -5.96235e-026   
     length 0.471689   
     axis 3.80223e-014 90 90   XYZ
    dof rx
    limits (0.0 90.0)
  end
  begin
     id 23
     name lthumb
     direction 0.707107 -6.3489e-011 0.707107   
     length 0.677253   
     axis -90 45 -3.84942e-014   XYZ
    dof rx rz
    limits (-45.0 45.0)
           (-45.0 45.0)
  end
  begin
     id 24 
     name rclavicle
     direction -0.923098 0.371783 0.0983239   
     length 3.19656  
     axis 0 0 0   XYZ 
    dof ry rz
    limits (-10.0 20.0)
           (-20.0 0.0)
  end
  begin
     id 25 
     name rhumerus
     direction -1 -4.48976e-011 -2.5492e-027  
     length 4.4745   
     axis 180 30 90   XYZ
    dof rx ry rz
    limits (-90.0 60.0)
           (-90.0 90.0)
           (-90.0 90.0)
  end
  begin
     id 26 
     name rradius
     direction -1 -4.48941e-011 -4.36555e-027   
     length 2.93896   
     axis 180 30 90   XYZ
    dof rx
    limits (-10.0 170.0)
  end
  begin
     id 27 
     name rwrist
     direction -1 -4.49044e-011 -1.49032e-026   
     length 1.46948   
     axis 9.0955e-015 -90 -90   XYZ
    dof ry
    limits (-180.0 0.0)
  end
  begin
     id 28
     name rhand
     direction -1 -4.48826e-011 -2.97749e-026   
     length 0.405092   
     axis 1.90115e-014 -90 -90   XYZ
    dof rx rz
    limits (-90.0 90.0)
           (-45.0 45.0)
  end
  begin
     id 29
     name rfingers
     direction -1 -4.49209e-011 -5.96602e-026   
     length 0.326596   
     axis 3.80223e-014 -90 -90   XYZ
    dof rx
    limits (0.0 90.0)
  end
  begin
     id 30
     name rthumb
     direction -0.707107 -6.34776e-011 0.707107   
     length 0.468928   
     axis -90 -45 3.84942e-014   XYZ
    dof rx rz
    limits (-45.0 45.0)
           (-45.0 45.0)
  end
:hierarchy
  begin
    root lhipjoint rhipjoint lowerback
    lhipjoint lfemur
    lfemur ltibia
    ltibia lfoot
    lfoot ltoes
    rhipjoint rfemur
    rfemur rtibia
    rtibia rfoot
    rfoot rtoes
    lowerback upperback
    upperback thorax
    thorax lowerneck lclavicle rclavicle
    lowerneck upperneck
    upperneck head
    lclavicle lhumerus
    lhumerus lradius
    lradius lwrist
    lwrist lhand lthumb
    lhand lfingers
    rclavicle rhumerus
    rhumerus rradius
    rradius rwrist
    rwrist rhand rthumb
    rhand rfingers
  end

#!OML:ASF H:\Punching\Project 1\Capture day 1\Session 1\female.ASF
:FULLY-SPECIFIED
:DEGREES
65
root 0.902998 15.9818 3.23888 16.0549 -4.03584 -4.95519
lowerback 1.72253 -0.876339 5.15243
upperback -1.95046 -0.969977 1.50012
thorax -3.03909 -0.580455 -1.29749
lowerneck -5.06605 3.12632 10.8793
upperneck 45.4029 4.42547 -5.55364
head 18.3915 2.91457 -3.97924
rclavicle 2.19284e-014 -3.20043e-014
rhumerus -37.6235 -0.402048 -77.9414
rradius 50.524
rwrist 1.57237
rhand -9.84471 -4.91116
rfingers 7.12502
rthumb 16.1332 -34.2597
lclavicle 2.19284e-014 -3.20043e-014
lhumerus -46.0221 6.8925 71.0677
lradius 40.117
lwrist -13.8009
lhand -3.02563 15.0122
lfingers 7.12502
lthumb 22.6894 43.6983
rfemur -28.0455 7.4406 16.4676
rtibia 31.296
rfoot -8.38211 -18.7404
rtoes 10.0321
lfemur -26.3899 -10.9087 -12.6529
ltibia 26.0018
lfoot -12.9321 18.3524
ltoes 1.13103
66
root 0.929068 15.9849 3.23979 16.1444 -4.04185 -5.06701
lowerback 1.75744 -0.893852 5.1417
upperback -1.92167 -0.992348 1.50571
thorax -3.03002 -0.590656 -1.28453
lowerneck -5.0561 3.1098 10.8589
upperneck 45.3872 4.40628 -5.56461
head 18.3748 2.89945 -3.98385
rclavicle -1.55301e-014 2.06736e-014
rhumerus -37.6352 -0.480863 -77.9674
rradius 50.257
rwrist 1.64257
rhand -9.77525 -4.99325
rfingers 7.12502
rthumb 16.2001 -34.3363
lclavicle -1.55301e-014 2.06736e-014
lhumerus -45.9078 6.78606 71.033
lradius 40.1254
lwrist -13.8074
lhand -3.05901 15.0412
lfingers 7.12502
lthumb 22.6573 43.7313
rfemur -28.2873 7.48086 16.4861
rtibia 31.4879
rfoot -8.64221 -18.6322
rtoes 10.0713
lfemur -26.5073 -11.0136 -12.5956
ltibia 26.0384
lfoot -12.9151 18.4937
ltoes 1.21186
67
root 0.953765 15.9875 3.24181 16.2218 -4.05155 -5.16562
lowerback 1.78966 -0.907063 5.12481
upperback -1.90229 -1.00905 1.50851
thorax -3.02874 -0.598245 -1.27116
lowerneck -5.02413 3.08756 10.8313
upperneck 45.3797 4.37902 -5.56649
head 18.3556 2.88153 -3.98432
rclavicle 0 3.74709e-014
rhumerus -37.6692 -0.582052 -77.9764
rradius 49.9544
rwrist 1.6242
rhand -9.75962 -5.06921
rfingers 7.12502
rthumb 16.2151 -34.4111
lclavicle 0 3.74709e-014
lhumerus -45.7987 6.66852 71.0125
lradius 40.1508
lwrist -13.8481
lhand -3.0689 15.0526
lfingers 7.12502
lthumb 22.6478 43.7438
rfemur -28.4894 7.52032 16.5017
rtibia 31.6384
rfoot -8.97894 -18.5342
rtoes 9.95879
lfemur -26.6098 -11.1108 -12.553
ltibia 26.0856
lfoot -12.9197 18.6251
ltoes 1.30181
68
root 0.977115 15.9897 3.24481 16.2895 -4.06087 -5.25198
lowerback 1.81727 -0.916243 5.10763
upperback -1.89072 -1.02048 1.50767
thorax -3.03267 -0.603476 -1.2616
lowerneck -4.9789 3.06035 10.7975
upperneck 45.3805 4.34455 -5.56126
head 18.3367 2.86106 -3.98167
rclavicle -4.14963e-014 1.53064e-014
rhumerus -37.7227 -0.714674 -77.9611
rradius 49.6197
rwrist 1.59129
rhand -9.73051 -5.16556
rfingers 7.12502
rthumb 16.2431 -34.5051
lclavicle -4.14963e-014 1.53064e-014
lhumerus -45.6933 6.5399 71.0069
lradius 40.1968
lwrist -13.9123
lhand -3.06367 15.0394
lfingers 7.12502
lthumb 22.6529 43.73
rfemur -28.6494 7.56416 16.5123
rtibia 31.7387
rfoot -9.37392 -18.4535
rtoes 9.66561
lfemur -26.7005 -11.1821 -12.5273
ltibia 26.1405
lfoot -12.9372 18.7246
ltoes 1.39575
69
root 0.999038 15.9915 3.24861 16.35 -4.07186 -5.32807
lowerback 1.84044 -0.923251 5.08533
upperback -1.88017 -1.02949 1.50522
thorax -3.03492 -0.607391 -1.25102
lowerneck -4.94808 3.0329 10.763
upperneck 45.3891 4.30784 -5.55431
head 18.3264 2.84001 -3.97874
rclavicle -2.5842e-015 7.95139e-016
rhumerus -37.7742 -0.87427 -77.9275
rradius 49.2422
rwrist 1.54426
rhand -9.71013 -5.25583
rfingers 7.12502
rthumb 16.2628 -34.5938
lclavicle -2.5842e-015 7.95139e-016
lhumerus -45.5828 6.41661 71.0126
lradius 40.2699
lwrist -13.9852
lhand -3.05239 15.0159
lfingers 7.12502
lthumb 22.6637 43.7051
rfemur -28.767 7.62413 16.5148
rtibia 31.7726
rfoot -9.79804 -18.3674
rtoes 9.20574
lfemur -26.7813 -11.2308 -12.5145
ltibia 26.1993
lfoot -12.9632 18.7992
ltoes 1.47918
70
root 1.01952 15.9916 3.2532 16.4052 -4.07775 -5.39645
lowerback 1.85291 -0.928407 5.06647
upperback -1.87296 -1.0366 1.49928
thorax -3.03461 -0.610478 -1.24617
lowerneck -4.91909 3.00187 10.7316
upperneck 45.4029 4.26483 -5.54686
head 18.3192 2.81725 -3.97734
rclavicle 1.14301e-015 -5.96354e-016
rhumerus -37.8434 -1.04074 -77.8884
rradius 48.8275
rwrist 1.43223
rhand -9.76402 -5.29606
rfingers 7.12502
rthumb 16.2109 -34.6383
lclavicle 1.14301e-015 -5.96354e-016
lhumerus -45.4735 6.29403 71.0259
lradius 40.3727
lwrist -14.0518
lhand -3.02977 14.9846
lfingers 7.12502
lthumb 22.6854 43.6712
rfemur -28.8428 7.6972 16.5108
rtibia 31.7343
rfoot -10.2506 -18.2723
rtoes 8.63344
lfemur -26.86 -11.2748 -12.5069
ltibia 26.2708
lfoot -13.0039 18.8601
ltoes 1.56419
71
root 1.03861 15.9922 3.25854 16.4573 -4.0764 -5.46437
lowerback 1.85898 -0.933314 5.0543
upperback -1.86643 -1.04354 1.49448
thorax -3.0315 -0.613567 -1.244
lowerneck -4.90994 2.97068 10.6957
upperneck 45.4248 4.21869 -5.53456
head 18.3219 2.7932 -3.97357
rclavicle -6.60959e-015 -1.80894e-014
rhumerus -37.9122 -1.21609 -77.8425
rradius 48.3627
rwrist 1.28443
rhand -9.91908 -5.25015
rfingers 7.12502
rthumb 16.0616 -34.6045
lclavicle -6.60959e-015 -1.80894e-014
lhumerus -45.3577 6.18559 71.0456
lradius 40.5014
lwrist -14.1032
lhand -3.014 14.9447
lfingers 7.12502
lthumb 22.7005 43.6295
rfemur -28.873 7.78449 16.5088
rtibia 31.6122
rfoot -10.7261 -18.1282
rtoes 7.92482
lfemur -26.94 -11.3166 -12.4944
ltibia 26.3562
lfoot -13.0577 18.9099
ltoes 1.64908
72
root 1.05634 15.9923 3.2646 16.5087 -4.06655 -5.53674
lowerback 1.84865 -0.937886 5.05553
upperback -1.85739 -1.05076 1.49152
thorax -3.01682 -0.616791 -1.24769
lowerneck -4.91682 2.93871 10.6604
upperneck 45.446 4.17079 -5.52499
head 18.3282 2.76816 -3.97145
rclavicle -5.61567e-015 2.34566e-014
rhumerus -37.9772 -1.40587 -77.7854
rradius 47.8556
rwrist 1.12665
rhand -10.1181 -5.14693
rfingers 7.12502
rthumb 15.8699 -34.5166
lclavicle -5.61567e-015 2.34566e-014
lhumerus -45.2291 6.09364 71.0717
lradius 40.6574
lwrist -14.1227
lhand -2.99675 14.9181
lfingers 7.12502
lthumb 22.7171 43.6008
rfemur -28.8645 7.88365 16.5136
rtibia 31.4065
rfoot -11.2053 -17.9139
rtoes 7.10976
lfemur -27.0268 -11.3564 -12.4719
ltibia 26.4622
lfoot -13.1271 18.9518
ltoes 1.73228
73
root 1.07266 15.9917 3.27145 16.5548 -4.04712 -5.61324
lowerback 1.83208 -0.945978 5.06565
upperback -1.84802 -1.06273 1.49159
thorax -2.9987 -0.622474 -1.25311
lowerneck -4.93635 2.90793 10.6262
upperneck 45.4666 4.12415 -5.51798
head 18.3379 2.74341 -3.97054
rclavicle 8.89561e-015 -1.76918e-014
rhumerus -38.0329 -1.60884 -77.7148
rradius 47.3056
rwrist 1.01883
rhand -10.3163 -5.02328
rfingers 7.12502
rthumb 15.6791 -34.408
lclavicle 8.89561e-015 -1.76918e-014
lhumerus -45.0989 6.02249 71.0988
lradius 40.8458
lwrist -14.0984
lhand -2.98539 14.9084
lfingers 7.12502
lthumb 22.728 43.5897
rfemur -28.8108 7.99439 16.5257
rtibia 31.1129
rfoot -11.6716 -17.6187
rtoes 6.21266
lfemur -27.1133 -11.39 -12.442
ltibia 26.5823
lfoot -13.2063 18.9802
ltoes 1.80761
74
root 1.08767 15.9907 3.27909 16.5984 -4.01964 -5.69138
lowerback 1.81064 -0.954085 5.08639
upperback -1.8453 -1.07442 1.49352
thorax -2.98492 -0.628405 -1.26254
lowerneck -4.95757 2.87359 10.583
upperneck 45.4859 4.07203 -5.50586
head 18.3459 2.71554 -3.96621
rclavicle -6.06293e-015 -1.07344e-014
rhumerus -38.0893 -1.84223 -77.6137
rradius 46.7138
rwrist 1.02352
rhand -10.4384 -4.92379
rfingers 7.12502
rthumb 15.5615 -34.3177
lclavicle -6.06293e-015 -1.07344e-014
lhumerus -44.981 5.96187 71.1329
lradius 41.0694
lwrist -14.0248
lhand -2.98658 14.9115
lfingers 7.12502
lthumb 22.7268 43.593
rfemur -28.7235 8.1161 16.542
rtibia 30.7473
rfoot -12.1223 -17.2405
rtoes 5.258
lfemur -27.2046 -11.4116 -12.4092
ltibia 26.7221
lfoot -13.2967 18.991
ltoes 1.87464
75
root 1.10129 15.9891 3.28735 16.6379 -3.98932 -5.76829
lowerback 1.78488 -0.960099 5.11356
upperback -1.85032 -1.08313 1.49383
thorax -2.97672 -0.633251 -1.27734
lowerneck -5.01131 2.8332 10.4413
upperneck 45.5718 3.9767 -5.36794
head 18.3921 2.66966 -3.89225
rclavicle 1.88845e-015 -9.14409e-015
rhumerus -38.1534 -2.10974 -77.4819
rradius 46.095
rwrist 1.16649
rhand -10.4583 -4.90008
rfingers 7.12502
rthumb 15.5422 -34.2955
lclavicle 1.88845e-015 -9.14409e-015
lhumerus -44.8708 5.89673 71.1741
lradius 41.321
lwrist -13.89
lhand -3.00595 14.9318
lfingers 7.12502
lthumb 22.7083 43.6156
rfemur -28.6068 8.25009 16.5604
rtibia 30.3242
rfoot -12.5497 -16.7973
rtoes 4.25693
lfemur -27.2958 -11.4187 -12.3775
ltibia 26.8743
lfoot -13.392 18.987
ltoes 1.92255
